Coordinates
version=1
nRows=8
nColumns=36
inDegrees=yes

Units are S.I. units (second, meters, Newtons, ...)
If the header above contains a line with 'inDegrees', this indicates whether rotational values are in degrees (yes) or radians (no).

endheader
time	pelvis_tilt	pelvis_list	pelvis_rotation	pelvis_tx	pelvis_ty	pelvis_tz	hip_flexion_r	hip_adduction_r	hip_rotation_r	knee_angle_r	knee_angle_r_beta	ankle_angle_r	subtalar_angle_r	mtp_angle_r	hip_flexion_l	hip_adduction_l	hip_rotation_l	knee_angle_l	knee_angle_l_beta	ankle_angle_l	subtalar_angle_l	mtp_angle_l	lumbar_extension	lumbar_bending	lumbar_rotation	arm_flex_r	arm_add_r	arm_rot_r	elbow_flex_r	pro_sup_r	arm_flex_l	arm_add_l	arm_rot_l	elbow_flex_l	pro_sup_l
      0.65000000	      1.72635507	      3.54925997	     -3.98735764	      0.67839429	      0.86819995	     -0.21876625	    -17.29681958	     -2.39492051	     -0.36857118	     32.51110713	      0.56742586	      4.02816055	     -2.00745564	     -7.30397217	     25.17170869	      5.69663928	     -6.19493999	     19.02606123	      0.33206741	     -0.41086477	     -5.56246434	     -7.30397217	     -8.26453840	     -6.25513652	      8.50799001	      7.61912477	     -7.61788475	     -0.21795409	     41.57749393	    101.96750610	     -6.77115013	     -8.01418659	     -0.83780639	      4.43319538	     84.72573005
      0.66000000	      2.00511030	      4.01274633	     -3.90618885	      0.69404571	      0.86975880	     -0.22027142	    -16.02352298	     -3.30443567	     -0.94683134	     36.38880567	      0.63510447	      0.54498375	     -2.57447197	     -7.30675931	     24.53980153	      6.30910603	     -6.32894156	     20.40218775	      0.35608535	     -0.26751532	     -5.84490241	     -7.30675931	     -8.43634665	     -6.79500389	      7.92778813	      7.13565637	     -7.21701087	     -0.61556287	     40.75889859	    101.90344081	     -6.54926229	     -8.06840679	     -0.71291646	      4.64741326	     84.53294172
      0.67000000	      2.18359664	      4.47193767	     -3.77338927	      0.70919965	      0.87145672	     -0.22177745	    -14.39936937	     -4.13099079	     -1.22535437	     40.42907203	      0.70562042	     -3.32083154	     -3.88681747	     -7.31073549	     23.96774426	      6.95332255	     -6.24877026	     21.71535251	      0.37900440	      0.18393015	     -5.96504474	     -7.31073549	     -8.54334493	     -7.30406180	      7.26840318	      6.70031502	     -6.76215226	     -1.17149354	     39.80488529	    101.79498724	     -6.23463296	     -8.12452719	     -0.56860102	      5.01467435	     84.29583667
      0.68000000	      2.42104756	      4.85080856	     -3.66308058	      0.72390217	      0.87345792	     -0.22311727	    -12.63325254	     -4.79930520	     -1.25197557	     44.52741352	      0.77714997	     -7.34265855	     -6.05232639	     -7.31812607	     23.20672047	      7.48543830	     -6.25831114	     22.82630848	      0.39839424	      1.02411854	     -5.78384214	     -7.31812607	     -8.80338629	     -7.74108267	      6.59221352	      6.32166484	     -6.30558783	     -1.84274922	     38.88217723	    101.60731134	     -5.85625838	     -8.18370056	     -0.44119537	      5.52941287	     83.92521239
      0.69000000	      2.79312786	      5.40729334	     -3.58229150	      0.73827232	      0.87572145	     -0.22456178	    -10.81897342	     -5.83998848	     -1.51924915	     48.72962304	      0.85049237	     -9.84237858	     -6.58074299	     -7.32062150	     22.07394234	      8.27299357	     -6.24677152	     23.41001628	      0.40858186	      1.86638818	     -5.72419158	     -7.32062150	     -9.25571156	     -8.35305967	      5.89292506	      5.91089751	     -5.93102543	     -2.18884276	     38.12864891	    101.46355359	     -5.30182603	     -8.24838881	     -0.35433379	      6.02558362	     83.87169591
      0.70000000	      2.94528599	      5.74200923	     -3.49468131	      0.75220069	      0.87785066	     -0.22577606	     -8.66021807	     -6.41944048	     -1.37208572	     52.78812250	      0.92132654	    -12.46784565	     -8.90441731	     -7.32862362	     21.11345756	      8.75475940	     -6.34103657	     23.88796987	      0.41692373	      2.87245043	     -5.13701207	     -7.32862362	     -9.49097214	     -8.70081392	      5.18086443	      5.60968574	     -5.48967895	     -2.90872860	     37.12515246	    101.02026203	     -4.83725604	     -8.32481045	     -0.41974805	      6.91954679	     83.72448853
      0.71000000	      3.17453618	      6.13521486	     -3.46459002	      0.76583078	      0.88012061	     -0.22699142	     -6.49209823	     -7.14025780	     -1.24711915	     56.74730127	      0.99042725	    -13.28114348	    -10.07285723	     -7.33221190	     19.84681556	      9.36675295	     -6.30058104	     23.84681554	      0.41620545	      3.62751122	     -4.83308014	     -7.33221190	     -9.84190499	     -9.11030868	      4.53750523	      5.26788093	     -5.19071796	     -3.30632202	     36.25021071	    100.72728007	     -4.20394513	     -8.40736906	     -0.41747253	      7.75750451	     83.75946554
      0.72000000	      3.44988828	      6.42218534	     -3.54467731	      0.77920222	      0.88252282	     -0.22804230	     -4.31906637	     -7.71204353	     -0.96411495	     60.43467731	      1.05478410	    -13.22488663	    -11.39105206	     -7.33431332	     18.36822375	      9.85769700	     -6.35199371	     23.46378066	      0.40952023	      4.39971116	     -4.61161511	     -7.33431332	    -10.25383927	     -9.38463126	      3.96846049	      4.95593498	     -4.95223228	     -3.63144847	     35.42826680	    100.48320900	     -3.50426616	     -8.46705088	     -0.38718693	      8.62959866	     83.84321369
